<svg id="Layer_1" enable-background="new 0 0 510.982 510.982" height="512" viewBox="0 0 510.982 510.982" width="512" xmlns="http://www.w3.org/2000/svg"><g><path d="m255.491 0c-104.668 0-189.821 85.154-189.821 189.822 0 52.577 30.376 120.955 90.284 203.236 43.819 60.184 86.944 104.913 88.759 106.788l10.778 11.136 10.778-11.136c1.814-1.875 44.939-46.604 88.759-106.788 59.908-82.281 90.284-150.66 90.284-203.236 0-104.668-85.153-189.822-189.821-189.822z" fill="#ff464a"/><path d="m255.491 0v510.982l10.778-11.136c1.814-1.875 44.939-46.604 88.759-106.788 59.908-82.281 90.284-150.66 90.284-203.236 0-104.668-85.153-189.822-189.821-189.822z" fill="#fb2b2c"/>
</g></svg>